{
    "asset": {
        "generator": "COLLADA2GLTF",
        "version": "2.0"
    },
    "scenes": [
        {
            "nodes": [
                0
            ]
        }
    ],
    "scene": 0,
    "nodes": [
        {
            "children": [
                1
            ],
            "matrix": [
                1.0,
                0.0,
                0.0,
                0.0,
                0.0,
                0.0,
                -1.0,
                0.0,
                0.0,
                1.0,
                0.0,
                0.0,
                0.0,
                0.0,
                0.0,
                1.0
            ],
            "name": "Z_UP"
        },
        {
            "mesh": 0,
            "matrix": [
                0.4080547988414765,
                0.0,
                0.0,
                0.0,
                0.0,
                0.4080547988414765,
                -6.64806023564779e-8,
                0.0,
                0.0,
                6.64806023564779e-8,
                0.4080547988414765,
                0.0,
                0.0,
                0.0,
                0.0,
                1.0
            ],
            "name": "Cloud_3"
        }
    ],
    "meshes": [
        {
            "primitives": [
                {
                    "attributes": {
                        "NORMAL": 1,
                        "POSITION": 2
                    },
                    "indices": 0,
                    "mode": 4
                }
            ],
            "name": "Icosphere.042"
        }
    ],
    "accessors": [
        {
            "bufferView": 0,
            "byteOffset": 0,
            "componentType": 5123,
            "count": 678,
            "max": [
                677
            ],
            "min": [
                0
            ],
            "type": "SCALAR"
        },
        {
            "bufferView": 1,
            "byteOffset": 0,
            "componentType": 5126,
            "count": 678,
            "max": [
                0.903104305267334,
                0.976265013217926,
                0.9594234228134156
            ],
            "min": [
                -0.9315636157989502,
                -0.9791008234024048,
                -0.95942360162735
            ],
            "type": "VEC3"
        },
        {
            "bufferView": 1,
            "byteOffset": 8136,
            "componentType": 5126,
            "count": 678,
            "max": [
                5.679569721221924,
                2.8750240802764899,
                4.810833930969238
            ],
            "min": [
                -5.164923191070557,
                -3.0902950763702394,
                -2.062227964401245
            ],
            "type": "VEC3"
        }
    ],
    "bufferViews": [
        {
            "buffer": 0,
            "byteOffset": 16272,
            "byteLength": 1356,
            "target": 34963
        },
        {
            "buffer": 0,
            "byteOffset": 0,
            "byteLength": 16272,
            "byteStride": 12,
            "target": 34962
        }
    ],
    "buffers": [
        {
            "byteLength": 17628,
            "uri": "data:application/octet-stream;base64,"
        }
    ]
}
