{
    "asset": {
        "generator": "COLLADA2GLTF",
        "version": "2.0"
    },
    "scenes": [
        {
            "nodes": [
                0
            ]
        }
    ],
    "scene": 0,
    "nodes": [
        {
            "children": [
                1
            ],
            "matrix": [
                1.0,
                0.0,
                0.0,
                0.0,
                0.0,
                0.0,
                -1.0,
                0.0,
                0.0,
                1.0,
                0.0,
                0.0,
                0.0,
                0.0,
                0.0,
                1.0
            ],
            "name": "Z_UP"
        },
        {
            "mesh": 0,
            "matrix": [
                0.4607189893722534,
                0.0,
                0.0,
                0.0,
                0.0,
                0.4607189893722534,
                -7.506059773731978e-8,
                0.0,
                0.0,
                7.506059773731978e-8,
                0.4607189893722534,
                0.0,
                0.0,
                0.0,
                0.0,
                1.0
            ],
            "name": "Cloud_4"
        }
    ],
    "meshes": [
        {
            "primitives": [
                {
                    "attributes": {
                        "NORMAL": 1,
                        "POSITION": 2
                    },
                    "indices": 0,
                    "mode": 4
                }
            ],
            "name": "Icosphere.045"
        }
    ],
    "accessors": [
        {
            "bufferView": 0,
            "byteOffset": 0,
            "componentType": 5123,
            "count": 498,
            "max": [
                497
            ],
            "min": [
                0
            ],
            "type": "SCALAR"
        },
        {
            "bufferView": 1,
            "byteOffset": 0,
            "componentType": 5126,
            "count": 498,
            "max": [
                0.983566403388977,
                0.9791008234024048,
                0.975894331932068
            ],
            "min": [
                -0.989210605621338,
                -0.9735084176063538,
                -0.9961419105529784
            ],
            "type": "VEC3"
        },
        {
            "bufferView": 1,
            "byteOffset": 5976,
            "componentType": 5126,
            "count": 498,
            "max": [
                3.9993410110473635,
                2.488313913345337,
                2.753067016601563
            ],
            "min": [
                -4.208866119384766,
                -2.258377075195313,
                -2.2809598445892336
            ],
            "type": "VEC3"
        }
    ],
    "bufferViews": [
        {
            "buffer": 0,
            "byteOffset": 11952,
            "byteLength": 996,
            "target": 34963
        },
        {
            "buffer": 0,
            "byteOffset": 0,
            "byteLength": 11952,
            "byteStride": 12,
            "target": 34962
        }
    ],
    "buffers": [
        {
            "byteLength": 12948,
            "uri": "data:application/octet-stream;base64,"
        }
    ]
}
