{
    "asset": {
        "generator": "COLLADA2GLTF",
        "version": "2.0"
    },
    "scenes": [
        {
            "nodes": [
                0
            ]
        }
    ],
    "scene": 0,
    "nodes": [
        {
            "children": [
                1
            ],
            "matrix": [
                1.0,
                0.0,
                0.0,
                0.0,
                0.0,
                0.0,
                -1.0,
                0.0,
                0.0,
                1.0,
                0.0,
                0.0,
                0.0,
                0.0,
                0.0,
                1.0
            ],
            "name": "Z_UP"
        },
        {
            "mesh": 0,
            "matrix": [
                0.4096491038799286,
                0.0,
                0.0,
                0.0,
                0.0,
                0.4096491038799286,
                -6.674029862097086e-8,
                0.0,
                0.0,
                6.674029862097086e-8,
                0.4096491038799286,
                0.0,
                0.0,
                0.0,
                0.0,
                1.0
            ],
            "name": "Cloud_2"
        }
    ],
    "meshes": [
        {
            "primitives": [
                {
                    "attributes": {
                        "NORMAL": 1,
                        "POSITION": 2
                    },
                    "indices": 0,
                    "mode": 4
                }
            ],
            "name": "Icosphere.043"
        }
    ],
    "accessors": [
        {
            "bufferView": 0,
            "byteOffset": 0,
            "componentType": 5123,
            "count": 798,
            "max": [
                797
            ],
            "min": [
                0
            ],
            "type": "SCALAR"
        },
        {
            "bufferView": 1,
            "byteOffset": 0,
            "componentType": 5126,
            "count": 798,
            "max": [
                0.9031051993370056,
                0.9822608828544616,
                0.9961419701576232
            ],
            "min": [
                -0.9031041264533996,
                -0.9791007041931152,
                -0.9961420893669128
            ],
            "type": "VEC3"
        },
        {
            "bufferView": 1,
            "byteOffset": 9576,
            "componentType": 5126,
            "count": 798,
            "max": [
                4.984572887420654,
                2.4826149940490724,
                3.105055093765259
            ],
            "min": [
                -5.125616073608398,
                -2.917952060699463,
                -2.621458053588867
            ],
            "type": "VEC3"
        }
    ],
    "bufferViews": [
        {
            "buffer": 0,
            "byteOffset": 19152,
            "byteLength": 1596,
            "target": 34963
        },
        {
            "buffer": 0,
            "byteOffset": 0,
            "byteLength": 19152,
            "byteStride": 12,
            "target": 34962
        }
    ],
    "buffers": [
        {
            "byteLength": 20748,
            "uri": "data:application/octet-stream;base64,"
        }
    ]
}
