{
    "asset": {
        "generator": "COLLADA2GLTF",
        "version": "2.0"
    },
    "scenes": [
        {
            "nodes": [
                0
            ]
        }
    ],
    "scene": 0,
    "nodes": [
        {
            "children": [
                1
            ],
            "matrix": [
                1.0,
                0.0,
                0.0,
                0.0,
                0.0,
                0.0,
                -1.0,
                0.0,
                0.0,
                1.0,
                0.0,
                0.0,
                0.0,
                0.0,
                0.0,
                1.0
            ],
            "name": "Z_UP"
        },
        {
            "mesh": 0,
            "matrix": [
                0.7749481797218323,
                0.0,
                0.0,
                0.0,
                0.0,
                0.7749481797218323,
                -1.26255002896869e-7,
                0.0,
                0.0,
                1.26255002896869e-7,
                0.7749481797218323,
                0.0,
                0.0,
                0.0,
                0.0,
                1.0
            ],
            "name": "cloud"
        }
    ],
    "meshes": [
        {
            "primitives": [
                {
                    "attributes": {
                        "NORMAL": 1,
                        "POSITION": 2
                    },
                    "indices": 0,
                    "mode": 4
                }
            ],
            "name": "Icosphere.044"
        }
    ],
    "accessors": [
        {
            "bufferView": 0,
            "byteOffset": 0,
            "componentType": 5123,
            "count": 273,
            "max": [
                272
            ],
            "min": [
                0
            ],
            "type": "SCALAR"
        },
        {
            "bufferView": 1,
            "byteOffset": 0,
            "componentType": 5126,
            "count": 273,
            "max": [
                0.90310400724411,
                0.9768385291099548,
                0.959423303604126
            ],
            "min": [
                -0.9031038880348206,
                -0.9768385291099548,
                -0.95942360162735
            ],
            "type": "VEC3"
        },
        {
            "bufferView": 1,
            "byteOffset": 3276,
            "componentType": 5126,
            "count": 273,
            "max": [
                2.3648359775543219,
                1.2811150550842286,
                1.3206499814987185
            ],
            "min": [
                -2.3554749488830568,
                -1.2811150550842286,
                -1.245393991470337
            ],
            "type": "VEC3"
        }
    ],
    "bufferViews": [
        {
            "buffer": 0,
            "byteOffset": 6552,
            "byteLength": 546,
            "target": 34963
        },
        {
            "buffer": 0,
            "byteOffset": 0,
            "byteLength": 6552,
            "byteStride": 12,
            "target": 34962
        }
    ],
    "buffers": [
        {
            "byteLength": 7098,
            "uri": "data:application/octet-stream;base64,"
        }
    ]
}
